<svg width="2rem" height="2rem" viewBox="0 0 16 16" xmlns="http://www.w3.org/2000/svg" fill="none">
  <path fill="#000" fill-rule="evenodd" d="M2 3.75A.75.75 0 0 1 2.75 3h.5a.75.75 0 0 1 0 1.5h-.5A.75.75 0 0 1 2 3.75zm4 0A.75.75 0 0 1 6.75 3h6.5a.75.75 0 0 1 0 1.5h-6.5A.75.75 0 0 1 6 3.75zm-4 4A.75.75 0 0 1 2.75 7h.5a.75.75 0 0 1 0 1.5h-.5A.75.75 0 0 1 2 7.75zm4 0A.75.75 0 0 1 6.75 7h6.5a.75.75 0 0 1 0 1.5h-6.5A.75.75 0 0 1 6 7.75zm-4 4a.75.75 0 0 1 .75-.75h.5a.75.75 0 0 1 0 1.5h-.5a.75.75 0 0 1-.75-.75zm4 0a.75.75 0 0 1 .75-.75h6.5a.75.75 0 0 1 0 1.5h-6.5a.75.75 0 0 1-.75-.75z" clip-rule="evenodd"/>
</svg>
