<svg xmlns="http://www.w3.org/2000/svg" width="2rem" height="2rem" viewBox="0 0 72 72" xml:space="preserve">
  <path d="M60.5 21h-27c-4.687 0-8.5-3.813-8.5-8.5S28.813 4 33.5 4h27c4.687 0 8.5 3.813 8.5 8.5S65.187 21 60.5 21zm-27-13c-2.481 0-4.5 2.019-4.5 4.5s2.019 4.5 4.5 4.5h27c2.481 0 4.5-2.019 4.5-4.5S62.981 8 60.5 8h-27zm27 60h-27c-4.687 0-8.5-3.813-8.5-8.5s3.813-8.5 8.5-8.5h27c4.687 0 8.5 3.813 8.5 8.5S65.187 68 60.5 68zm-27-13c-2.481 0-4.5 2.019-4.5 4.5s2.019 4.5 4.5 4.5h27c2.481 0 4.5-2.019 4.5-4.5S62.981 55 60.5 55h-27zm27-10h-27c-4.687 0-8.5-3.813-8.5-8.5s3.813-8.5 8.5-8.5h27c4.687 0 8.5 3.813 8.5 8.5S65.187 45 60.5 45zm-27-13c-2.481 0-4.5 2.019-4.5 4.5s2.019 4.5 4.5 4.5h27c2.481 0 4.5-2.019 4.5-4.5S62.981 32 60.5 32h-27zm-21-11h-1C6.813 21 3 17.187 3 12.5S6.813 4 11.5 4h1c4.687 0 8.5 3.813 8.5 8.5S17.187 21 12.5 21zm-1-13C9.019 8 7 10.019 7 12.5S9.019 17 11.5 17h1c2.481 0 4.5-2.019 4.5-4.5S14.981 8 12.5 8h-1zm1 60h-1C6.813 68 3 64.187 3 59.5S6.813 51 11.5 51h1c4.687 0 8.5 3.813 8.5 8.5S17.187 68 12.5 68zm-1-13C9.019 55 7 57.019 7 59.5S9.019 64 11.5 64h1c2.481 0 4.5-2.019 4.5-4.5S14.981 55 12.5 55h-1zm1-10h-1C6.813 45 3 41.187 3 36.5S6.813 28 11.5 28h1c4.687 0 8.5 3.813 8.5 8.5S17.187 45 12.5 45zm-1-13C9.019 32 7 34.019 7 36.5S9.019 41 11.5 41h1c2.481 0 4.5-2.019 4.5-4.5S14.981 32 12.5 32h-1z"/>
</svg>
